<svg width="31" height="30" viewBox="0 0 31 30" fill="none" xmlns="http://www.w3.org/2000/svg">
<g clip-path="url(#clip0)">
<path d="M30.5454 18.5065V12.5168H26.8362L18.056 4.40392C18.1546 4.126 18.2088 3.82724 18.2088 3.51589C18.2088 2.04731 17.014 0.852539 15.5454 0.852539C14.0768 0.852539 12.8821 2.04731 12.8821 3.51589C12.8821 3.82721 12.9362 4.126 13.0348 4.40392L4.25465 12.5168H0.54541V18.5065H1.59405L5.2376 29.1476H25.8532L29.4967 18.5065H30.5454V18.5065ZM20.4242 21.6921H16.597V18.5356H20.7359L20.4242 21.6921ZM14.4939 27.0446H11.1952L10.8743 23.7952H14.4939V27.0446ZM10.6666 21.6921L10.3549 18.5355H14.4939V21.6921H10.6666ZM16.1057 3.51589C16.1057 3.67829 16.0358 3.82433 15.925 3.92674C15.8251 4.01915 15.6919 4.07615 15.5454 4.07615C15.3989 4.07615 15.2657 4.01915 15.1658 3.92674C15.055 3.8243 14.9852 3.67829 14.9852 3.51589C14.9852 3.35349 15.055 3.20745 15.1658 3.10504C15.2657 3.01263 15.3989 2.95563 15.5454 2.95563C15.6919 2.95563 15.8251 3.01263 15.925 3.10504C16.0358 3.20748 16.1057 3.35349 16.1057 3.51589ZM14.4625 5.94824C14.7936 6.09626 15.1599 6.17927 15.5454 6.17927C15.931 6.17927 16.2972 6.09626 16.6283 5.94824L23.7372 12.5169H7.35362L14.4625 5.94824ZM2.6485 14.6199H28.4423V16.4035H2.6485V14.6199ZM8.24165 18.5356L8.55334 21.6921H4.90778L3.82698 18.5356H8.24165ZM6.74047 27.0446L5.62787 23.7952H8.76102L9.08186 27.0446H6.74047ZM16.597 23.7952H20.2165L19.8956 27.0445H16.597V23.7952ZM24.3503 27.0446H22.0089L22.3298 23.7952H25.4629L24.3503 27.0446ZM26.183 21.6921H22.5375L22.8492 18.5355H27.2639L26.183 21.6921Z" fill="#0C0D36"/>
</g>
<defs>
<clipPath id="clip0">
<rect width="30" height="30" fill="white" transform="translate(0.54541)"/>
</clipPath>
</defs>
</svg>
